<?xml version="1.0" encoding="UTF-8" standalone="no"?>

<svg
   width="35.533543mm"
   height="62.962894mm"
   viewBox="0 0 35.533543 62.962894"
   version="1.1"
   id="svg1"
   xmlns="http://www.w3.org/2000/svg"
   xmlns:svg="http://www.w3.org/2000/svg">

  <path
     d="m 17.766771,9.474729 c 1.804458,0 3.473979,0.582083 4.836583,1.563688 V 0.6746875 C 21.063479,0.238125 19.444229,0 17.766771,0 12.501562,0 7.7681666,2.3045208 4.5137916,5.9531249 l 7.6120624,5.7441041 c 1.481667,-1.378479 3.463396,-2.2225 5.640917,-2.2225 z"
     style="stroke-width:0.264583" />
  <path
     d="m 0.00264583,17.764125 c 0,4.683125 1.82562497,8.945562 4.79689577,12.123208 2.7172708,-2.304521 6.0536664,-3.897313 9.7207914,-4.495271 -2.960687,-1.267354 -5.0429581,-4.206875 -5.0429581,-7.625291 0,-1.561042 0.4339166,-3.024188 1.1879791,-4.273021 L 3.0876875,7.7761041 C 1.143,10.625667 0.00264583,14.06525 0.00264583,17.769416 Z"
     style="stroke-width:0.264583" />
  <path
     d="m 35.533541,17.764125 c 0,-7.254875 -4.373562,-13.5016876 -10.617729,-16.2586459 V 13.570479 c 0.724959,1.230312 1.143,2.664354 1.143,4.193646 0,3.418416 -2.079625,6.360583 -5.042958,7.625291 3.667125,0.600604 7.003521,2.19075 9.720791,4.495271 2.971271,-3.177646 4.796896,-7.440083 4.796896,-12.123208 z"
     style="stroke-width:0.264583" />
  <path
     d="m 17.766771,27.434645 c -4.278313,0 -8.2073753,1.518709 -11.2765419,4.048125 3.0691666,2.526771 6.9982289,4.048125 11.2765419,4.048125 4.278312,0 8.207375,-1.518708 11.276541,-4.048125 C 25.974146,28.956 22.045083,27.434645 17.766771,27.434645 Z"
     style="stroke-width:0.264583" />
  <path
     d="M 9.9271665,47.058791 C 9.7842915,46.460833 9.7075624,45.839062 9.7075624,45.19877 c 0,-3.458104 2.1907496,-6.4135 5.2546246,-7.5565 C 11.120437,37.10252 7.6226457,35.472687 4.7968958,33.075562 1.825625,36.253208 0,40.515645 0,45.19877 c 0,1.939396 0.3175,3.804709 0.89429166,5.553604 L 9.9245207,47.058791 Z"
     style="stroke-width:0.264583" />
  <path
     d="m 35.533541,45.19877 c 0,-4.683125 -1.825625,-8.945562 -4.796896,-12.123208 -2.82575,2.397125 -6.323541,4.026958 -10.165291,4.566708 3.066521,1.140354 5.254625,4.09575 5.254625,7.5565 0,1.341438 -0.330729,2.6035 -0.912813,3.717396 v 12.54125 C 31.159979,58.700458 35.530895,52.453645 35.530895,45.19877 Z"
     style="stroke-width:0.264583" />
  <path
     d="m 17.766771,62.962895 c 1.677458,0 3.296708,-0.238125 4.836583,-0.674687 V 51.638729 c -1.346729,1.013354 -3.024188,1.616604 -4.836583,1.616604 -2.9845,0 -5.593292,-1.632479 -6.987646,-4.050771 l -9.0222917,3.690937 c 2.873375,5.950479 8.9693747,10.067396 16.0099377,10.067396 z"
     style="stroke-width:0.264583" />
</svg>
