<?xml version="1.0" encoding="UTF-8" standalone="no"?>
<!-- Created with Inkscape (http://www.inkscape.org/) -->

<svg
   width="35.483273mm"
   height="63.597897mm"
   viewBox="0 0 35.483273 63.597897"
   version="1.1"
   xmlns="http://www.w3.org/2000/svg"
   xmlns:svg="http://www.w3.org/2000/svg">
  <path
     d="m 10.38225,15.61041 v -3.429 c 0,-0.99483 0.806979,-1.80181 1.801813,-1.80181 h 11.115145 c 0.291042,0 0.563563,0.0688 0.804334,0.1905 l 4.52702,-9.77106 C 27.365854,0.28575 25.984729,0 24.54275,0 H 10.943167 C 4.926542,0 0.005292,4.92125 0.005292,10.93787 v 0.62971 l 10.379604,4.04283 z" />
  <path
     d="m 0.002646,21.39685 v 0 c 0,1.89706 0.399521,3.79942 1.217083,5.51392 0.296334,0.62441 0.645584,1.21973 1.037167,1.78858 C 2.624667,28.30777 3.010959,27.9347 3.407834,27.58281 4.191,26.8896 5.024438,26.24666 5.942542,25.68045 6.858,25.11689 7.84225,24.638 8.866188,24.27552 c 0.497416,-0.17727 1.005416,-0.32809 1.513416,-0.4498 v -6.1886 L 0,13.59429 v 7.80521 z" />
  <path
     d="m 25.103667,12.90902 v 10.9167 c 0.508,0.12436 1.016,0.27253 1.513416,0.4498 1.021292,0.36248 2.008188,0.84137 2.923646,1.40493 0.918104,0.56621 1.751546,1.20915 2.534706,1.90236 0.39688,0.35189 0.78317,0.72496 1.15094,1.11654 0.39158,-0.56885 0.74083,-1.16417 1.03717,-1.78858 0.81756,-1.7145 1.21973,-3.61686 1.21708,-5.51392 V 10.93787 c 0,-3.9026 -2.07169,-7.34219 -5.169958,-9.27894 l -5.209646,11.25009 z" />
  <path
     d="m 28.545896,33.10202 c 0.809625,-0.49742 1.563687,-1.07686 2.272769,-1.70657 0.42598,-0.37835 0.83079,-0.78052 1.21179,-1.2012 -0.38364,-0.42069 -0.78581,-0.8255 -1.21179,-1.20121 -0.709082,-0.62971 -1.46579,-1.20915 -2.272769,-1.70657 -0.806979,-0.49741 -1.666875,-0.91281 -2.561167,-1.23031 -1.791229,-0.64294 -3.706812,-0.85989 -5.598583,-0.85989 h -5.289021 c -1.894417,0 -3.807354,0.2196 -5.598583,0.85989 -0.894292,0.3175 -1.751542,0.7329 -2.561167,1.23031 -0.809625,0.49742 -1.563687,1.07686 -2.272771,1.70657 -0.425979,0.37835 -0.830791,0.78052 -1.211791,1.20121 0.383646,0.42068 0.785812,0.8255 1.211791,1.2012 0.709084,0.62971 1.465792,1.20915 2.272771,1.70657 0.806979,0.49741 1.666875,0.91281 2.561167,1.23031 1.791229,0.64294 3.706812,0.85989 5.598583,0.85989 h 5.289021 c 1.894416,0 3.807354,-0.2196 5.598583,-0.85989 0.894292,-0.3175 1.751542,-0.7329 2.561167,-1.23031 z" />
  <path
     d="M 10.38225,36.56277 C 9.87425,36.43841 9.36625,36.29025 8.868833,36.11297 7.847542,35.7505 6.860646,35.2716 5.945188,34.70804 5.027084,34.14183 4.193646,33.49889 3.410479,32.80568 3.013604,32.45379 2.627313,32.08072 2.259542,31.68914 1.867959,32.258 1.518709,32.85331 1.222375,33.47772 0.404813,35.19222 0.002646,37.09458 0.005292,38.99164 v 0 11.01196 l 10.379604,-4.04283 v -9.398 z" />
  <path
     d="m 33.226375,31.68914 c -0.36777,0.39158 -0.75406,0.76465 -1.15094,1.11654 -0.78316,0.69321 -1.616602,1.33615 -2.534706,1.90236 -0.915458,0.56356 -1.899708,1.04246 -2.923646,1.40493 -0.497416,0.17728 -1.005416,0.32809 -1.513416,0.4498 v 14.00175 l 5.19377,11.38237 c 3.106208,-1.9341 5.185838,-5.38162 5.185838,-9.28952 V 38.99164 c 0,-1.89706 -0.39953,-3.79942 -1.21709,-5.51392 -0.29633,-0.62441 -0.64558,-1.21972 -1.03716,-1.78858 z" />
  <path
     d="m 24.143229,53.00927 c -0.251354,0.13229 -0.537104,0.20902 -0.841375,0.20902 H 12.186708 c -0.994833,0 -1.801812,-0.80698 -1.801812,-1.80182 v -3.429 L 0.005292,52.03031 v 0.62971 c 0,6.01662 4.92125,10.93787 10.937875,10.93787 H 24.54275 c 1.436687,0 2.809875,-0.2831 4.069292,-0.79375 l -4.471459,-9.79487 z" />
</svg>
