<?xml version="1.0" encoding="UTF-8" standalone="no"?>
<!-- Created with Inkscape (http://www.inkscape.org/) -->

<svg
   width="35.480625mm"
   height="63.5979mm"
   viewBox="0 0 35.480626 63.5979"
   version="1.1"
   xmlns="http://www.w3.org/2000/svg"
   xmlns:svg="http://www.w3.org/2000/svg">
  <path
     d="m 11.181292,13.591643 c 0.06879,-1.561042 1.35202,-2.804584 2.928937,-2.804584 h 7.262812 c 1.576917,0 2.860146,1.243542 2.928938,2.804584 L 33.599437,4.9926845 C 31.588604,1.9896637 28.167541,-2.8993999e-6 24.304625,-2.8993999e-6 H 11.181292 C 7.3157291,-2.8993999e-6 3.8946666,1.9870179 1.8864791,4.9926845 l 9.2974579,8.5989585 z"
     style="stroke-width:0.264583" />
  <path
     d="m 0.00264583,11.178643 v 6.820958 c 0,2.693458 1.11918747,5.310187 3.08768747,7.146396 l 4.9503541,4.579937 H 16.229541 V 22.378455 L 0.51329166,7.842247 C 0.17991666,8.8979345 0,10.019768 0,11.181289 Z"
     style="stroke-width:0.264583" />
  <path
     d="m 19.251083,29.723288 h 8.188854 l 4.960938,-4.59052 c 1.971145,-1.836209 3.077104,-4.442354 3.077104,-7.135813 v -6.820958 c 0,-1.161521 -0.179917,-2.2833542 -0.513292,-3.3390417 L 19.248437,22.373163 v 7.34748 z"
     style="stroke-width:0.264583" />
  <path
     d="m 11.173354,44.767497 5.058833,-4.677834 V 32.742184 H 8.0459791 L 3.1115,37.314184 C 1.1297708,39.150392 0.00264583,41.73008 0.00264583,44.431476 v 7.98777 c 0,0.833438 0.09525,1.648355 0.27252083,2.431521 L 11.176,44.767497 v 0 z"
     style="stroke-width:0.264583" />
  <path
     d="m 35.480625,52.419246 v -7.98777 c 0,-2.701396 -1.127125,-5.281084 -3.108855,-7.117292 l -4.934479,-4.572 h -8.186208 v 7.347479 l 15.957021,14.761104 c 0.174625,-0.783166 0.272521,-1.595437 0.272521,-2.431521 z"
     style="stroke-width:0.264583" />
  <path
     d="m 24.309916,48.881767 v 0.976313 c 0,1.621896 -1.314979,2.936875 -2.936875,2.936875 h -7.262812 c -1.621896,0 -2.936875,-1.314979 -2.936875,-2.936875 v -0.976313 l -9.7340207,9.001125 c 1.920875,3.402542 5.5721249,5.715 9.7393127,5.715 h 13.120687 c 4.167187,0 7.818437,-2.312458 9.739312,-5.715 l -9.73402,-9.001125 z"
     style="stroke-width:0.264583" />
</svg>
